PathFileType	4	(X/Y/Z)	Patient4_TMGait_0pt3_01_left_25.trc.trc
DataRate	CameraRate	NumFrames	NumMarkers	Units	OrigDataRate	OrigDataStartFrame	OrigNumFrames
50.724637681159	50.724637681159	4	33	mm	50.724637681159	71	       141
Frame#	Time	Sacral			L.Shoulder			Chest			R.Shoulder			Neck			R.ASIS			L.ASIS			R.Thigh.Superior			R.Thigh.Lateral			R.Thigh.Inferior			R.Patella			L.Thigh.Superior			L.Thigh.Lateral			L.Thigh.Inferior			L.Patella			L.Shank.Superior			L.Shank.Lateral			L.Shank.Inferior			R.Shank.Superior			R.Shank.Lateral			R.Shank.Inferior			R.Heel			R.Midfoot.Superior			R.Midfoot.Lateral			R.Toe			L.Heel			L.Midfoot.Lateral			L.Midfoot.Superior			L.Toe			L.Elbow			L.Wrist			R.Elbow			R.Wrist			
		X1	Y1	Z1	X2	Y2	Z2	X3	Y3	Z3	X4	Y4	Z4	X5	Y5	Z5	X6	Y6	Z6	X7	Y7	Z7	X8	Y8	Z8	X9	Y9	Z9	X10	Y10	Z10	X11	Y11	Z11	X12	Y12	Z12	X13	Y13	Z13	X14	Y14	Z14	X15	Y15	Z15	X16	Y16	Z16	X17	Y17	Z17	X18	Y18	Z18	X19	Y19	Z19	X20	Y20	Z20	X21	Y21	Z21	X22	Y22	Z22	X23	Y23	Z23	X24	Y24	Z24	X25	Y25	Z25	X26	Y26	Z26	X27	Y27	Z27	X28	Y28	Z28	X29	Y29	Z29	X30	Y30	Z30	X31	Y31	Z31	X32	Y32	Z32	X33	Y33	Z33	

71	48.260000000000	683.880054264799	1008.167911529862	415.935977232163	928.224852271414	1435.340305682509	287.749200302958	977.577279745301	1359.789614862256	468.939371707947	851.120169226736	1436.753442193026	613.399583878905	869.392635394664	1494.385640072305	438.175484138881	885.965168825151	947.129198676216	580.499698538025	924.797649193774	956.870516966768	307.874493220684	959.450766246488	768.437858086123	558.616407486610	904.837638724949	648.255879689945	623.551763512137	995.966453563853	605.864339994445	550.419235909622	1022.644544278679	518.812895793824	570.648394930991	938.543904372614	731.973982726951	344.410808630437	842.223867039091	623.595534712535	276.859131109660	906.439198529929	540.076694358144	352.366735046866	896.116143063904	470.964100186972	362.713031283035	859.663779590383	402.392101100920	353.869654637651	759.492880785391	298.284151054255	300.625251174322	787.794282528795	184.664517237105	378.529685358423	994.622550063823	430.511750462939	580.497633171071	923.824518407158	326.815085404115	643.933670083631	982.092403262482	231.178747411394	596.635813068241	866.849960163014	52.948544979933	570.710986536540	1032.725620015843	115.731982345225	610.561072901108	950.982923816873	44.908238644826	644.480295616611	1155.414236063003	73.904280311381	638.004539044876	642.764282460610	38.728428676568	420.337008773253	716.945957605510	35.464724841874	340.132711972080	801.460222976840	94.637597341395	367.814778063646	929.293906325934	40.246025133000	339.139236463052	1045.035368121212	1132.128763716687	131.090070534475	1290.830965358073	1052.946588754858	170.255540015700	661.686215733359	1139.239368682140	682.440436146578	604.075381612621	886.542690998285	710.899821325744	
72	48.279714285714	684.210136565182	1007.212206582054	417.661471539726	929.739456681634	1434.390600100893	292.205170599785	977.729767609689	1358.499341046641	473.658358297211	850.301250259993	1435.645143350363	617.223863327833	869.892735118669	1493.339363713348	442.270498978362	884.810471640664	945.551345459811	583.822812242554	925.777773305869	955.957183582520	311.300023639520	956.525167028332	765.185899717680	563.150029765959	898.865070936357	645.419591383893	626.434464652245	990.762947901153	602.898437930876	554.357443692172	1016.735694231801	518.165690796622	573.147110818949	936.938549572041	730.680174704738	347.205610411174	839.641914784829	623.526194458845	278.194010762689	902.108691744199	539.076426631108	353.690508354828	890.740151268577	470.211344755367	363.718534867346	854.454814003762	401.968391292813	354.588647503492	754.045758364771	298.228187552772	300.966154910187	781.983967401520	184.412869965764	378.755774096091	992.963267195051	429.436982167982	582.753269449719	926.822262644056	322.122571688726	645.969035743163	989.714684197464	229.147925610332	598.340997616685	881.897182093926	47.003480833345	572.399633231018	1046.232244792226	114.685408540117	611.342729655588	966.822497666733	41.253050786174	645.627605449911	1170.722181454649	76.256748361148	637.788203987041	636.785611677339	38.546496994208	420.318999112670	710.953581280981	35.356081014766	340.107671927274	795.420845601473	94.577767350435	367.881752735577	923.302107763631	40.233763055803	339.194055897939	1051.706041996815	1134.300064979321	135.256932553688	1299.994547428152	1064.757360745999	175.852984895775	660.133084079534	1138.676260650365	684.585680054165	604.507919250610	885.397689540785	713.201966438489	
73	48.299428571429	684.942081458741	1005.879055005113	419.975243629563	930.890966711142	1433.264256911264	296.917312690960	977.941349083999	1357.107306325849	478.539257943510	849.737712991443	1434.271763637140	621.465795797456	870.286000348397	1492.076485315206	446.749638372441	884.278318371748	943.686382338459	587.318544971940	927.048244690342	954.903468763370	314.918406739626	954.476464334169	761.826082604034	567.633288854594	893.837498529990	642.363999886520	629.102239215654	986.576567218666	599.892017736719	558.082336803436	1011.529562187924	516.920359712687	575.453279456498	935.940343640727	729.277150836717	350.089232398368	837.602436250570	623.305108056355	279.816624260518	898.426864595221	537.961978626389	355.226815449664	886.083924048149	469.283489527281	364.948772634647	849.779773956972	401.367692480078	355.535705247497	748.917265200552	298.194765646806	301.494519745752	776.352430947856	184.090634617954	379.073199702814	991.156871514514	427.839594500795	584.823959715829	928.469007443509	317.891991150847	647.477771473288	994.883976193173	227.138292119987	599.619185099527	892.611466665646	42.962421279728	573.293086147159	1055.853452298830	113.445997712419	611.720793880636	977.876755277067	38.734389201998	646.264780373838	1181.302968105799	77.000336749499	637.583265262039	630.802594361593	38.348679286956	420.308538059754	704.972676600377	35.240225359847	340.098634621256	789.391418144969	94.530585900037	367.966975479309	917.323766270811	40.213488564928	339.239394222771	1057.639791078300	1136.007075554264	139.856428888404	1307.886475881700	1075.176865404369	181.409218997004	660.182610428330	1136.910619184053	687.364418682167	607.558328882951	882.807801446973	716.010190099595	
74	48.319142857143	686.083883220722	1004.317202610131	422.862476452671	931.736161053982	1432.101535377202	301.884749890486	978.223166448040	1355.752439994062	483.600723969888	849.398124639775	1432.772885571854	626.111652889283	870.568902620953	1490.724954627021	451.604008604406	884.389118468105	941.713654564144	591.014352392628	928.628921410613	953.828034370330	318.758606659214	953.446432844518	758.633503514955	571.961142064386	890.052595242542	639.331424800007	631.528349996922	983.651413069635	597.094567571226	561.512534750877	1007.339743527626	515.266722331472	577.520494503459	935.508405835844	727.812184853945	353.077709203840	836.027288552477	623.000772923934	281.761449629064	895.320036450702	536.785019672158	357.008875936108	882.081284582476	468.227070589633	366.430678216596	845.569847263198	400.658509615148	356.725267504967	744.048503676328	298.244121711663	302.233667761556	770.877972574224	183.748475209186	379.486878359224	989.469495330016	425.857101493555	586.665581798555	929.004698315677	314.188516665329	648.532499901571	997.770771023031	225.102607394975	600.463123597747	898.991490659126	40.537992934915	573.495328561821	1061.689864855215	111.932810796358	611.710775404961	984.237790756176	37.141005568606	646.472205488458	1187.384666475559	76.127853825340	637.370562645953	624.815018712094	38.168090293728	420.300067643406	699.007080233988	35.130835537959	340.108883086731	783.385468690069	94.509171403964	368.062222575134	911.364923623107	40.184710652223	339.272074056434	1062.767183081274	1137.336624714613	144.817305857449	1314.538184774283	1084.222262033460	186.909647055900	661.727876709430	1134.135499817213	690.764458760838	612.917646400871	879.060409116258	719.360566551737	
